<svg width="26" height="26" viewBox="0 0 26 26" fill="none" xmlns="http://www.w3.org/2000/svg">
<g clip-path="url(#clip0_1501_34)">
<rect width="26" height="26" rx="5" fill="#A10000"/>
<path fill-rule="evenodd" clip-rule="evenodd" d="M19.5679 6.39948C21.3867 8.21547 22.2962 10.4109 22.2962 12.9829C22.2962 15.5549 21.3867 17.7503 19.5679 19.5691C17.749 21.3879 15.5507 22.2973 12.9786 22.3001C10.4064 22.3001 8.21093 21.3879 6.39204 19.5691C4.57316 17.7503 3.6665 15.5549 3.6665 12.9829C3.6665 10.4109 4.57596 8.21547 6.39204 6.39948C8.21093 4.58065 10.4064 3.66846 12.9786 3.66846C15.5535 3.66846 17.749 4.57786 19.5679 6.39948ZM13.1766 5.21387H12.9786C12.9786 5.21387 12.9702 5.21108 12.9646 5.21108C12.8977 5.21108 12.8307 5.21108 12.7666 5.21387C10.7105 5.2613 8.94744 6.02007 7.48004 7.48742C5.96246 9.00495 5.20365 10.8377 5.20365 12.9857C5.20365 15.1337 5.96246 16.9664 7.48004 18.484C8.94744 19.9513 10.7105 20.7101 12.7666 20.7575C11.7818 20.7101 10.9365 20.3307 10.2279 19.6249C9.46912 18.8661 9.08971 17.9483 9.0925 16.8744C9.0925 15.8004 9.4719 14.8826 10.2279 14.1239C10.9755 13.3762 11.8738 12.9968 12.9255 12.9857H13.026C14.0777 12.9745 14.9788 12.5923 15.7237 11.8447C16.4825 11.086 16.8646 10.171 16.8646 9.09699C16.8646 8.02298 16.4853 7.10523 15.7237 6.34646C15.0123 5.63514 14.1642 5.25852 13.1738 5.21387H13.1766ZM12.0719 17.781C12.323 18.0321 12.6243 18.1576 12.9786 18.1576C13.3329 18.1576 13.6341 18.0321 13.8852 17.781C14.1363 17.5299 14.2618 17.2287 14.2618 16.8744C14.2618 16.5201 14.1363 16.2188 13.8852 15.9677C13.6341 15.7167 13.3329 15.5912 12.9786 15.5912C12.6243 15.5912 12.323 15.7167 12.0719 15.9677C11.8208 16.2188 11.6953 16.5201 11.6953 16.8744C11.6953 17.2287 11.8208 17.5299 12.0719 17.781Z" fill="white"/>
<path fill-rule="evenodd" clip-rule="evenodd" d="M19.5679 7.39948C21.3867 9.21547 22.2962 11.4109 22.2962 13.9829C22.2962 16.5549 21.3867 18.7503 19.5679 20.5691C17.749 22.3879 15.5507 23.2973 12.9786 23.3001C10.4064 23.3001 8.21093 22.3879 6.39204 20.5691C4.57316 18.7503 3.6665 16.5549 3.6665 13.9829C3.6665 11.4109 4.57596 9.21547 6.39204 7.39948C8.21093 5.58065 10.4064 4.66846 12.9786 4.66846C15.5535 4.66846 17.749 5.57786 19.5679 7.39948ZM13.1766 6.21387H12.9786C12.9786 6.21387 12.9702 6.21108 12.9646 6.21108C12.8977 6.21108 12.8307 6.21108 12.7666 6.21387C10.7105 6.2613 8.94744 7.02007 7.48004 8.48742C5.96246 10.0049 5.20365 11.8377 5.20365 13.9857C5.20365 16.1337 5.96246 17.9664 7.48004 19.484C8.94744 20.9513 10.7105 21.7101 12.7666 21.7575C11.7818 21.7101 10.9365 21.3307 10.2279 20.6249C9.46912 19.8661 9.08971 18.9483 9.0925 17.8744C9.0925 16.8004 9.4719 15.8826 10.2279 15.1239C10.9755 14.3762 11.8738 13.9968 12.9255 13.9857H13.026C14.0777 13.9745 14.9788 13.5923 15.7237 12.8447C16.4825 12.086 16.8646 11.171 16.8646 10.097C16.8646 9.02298 16.4853 8.10523 15.7237 7.34646C15.0123 6.63514 14.1642 6.25852 13.1738 6.21387H13.1766ZM12.0719 18.781C12.323 19.0321 12.6243 19.1576 12.9786 19.1576C13.3329 19.1576 13.6341 19.0321 13.8852 18.781C14.1363 18.5299 14.2618 18.2287 14.2618 17.8744C14.2618 17.5201 14.1363 17.2188 13.8852 16.9677C13.6341 16.7167 13.3329 16.5912 12.9786 16.5912C12.6243 16.5912 12.323 16.7167 12.0719 16.9677C11.8208 17.2188 11.6953 17.5201 11.6953 17.8744C11.6953 18.2287 11.8208 18.5299 12.0719 18.781Z" fill="black"/>
<path fill-rule="evenodd" clip-rule="evenodd" d="M13.8828 8.19036C14.1339 8.44144 14.2594 8.74548 14.2594 9.09975C14.2594 9.45402 14.1339 9.75533 13.8828 10.0064C13.6317 10.2574 13.3305 10.383 12.9761 10.383C12.6219 10.383 12.3206 10.2574 12.0695 10.0064C11.8184 9.75533 11.6929 9.45402 11.6929 9.09975C11.6929 8.74548 11.8184 8.44144 12.0695 8.19036C12.3206 7.94207 12.6219 7.81653 12.9761 7.81653C13.3305 7.81653 13.6317 7.93928 13.8828 8.19036Z" fill="white"/>
</g>
<defs>
<clipPath id="clip0_1501_34">
<rect width="26" height="26" fill="white"/>
</clipPath>
</defs>
</svg>
